<svg width="48" height="48" viewBox="0 0 48 48" fill="none" xmlns="http://www.w3.org/2000/svg">
<path d="M27.9367 27.4195C27.2678 28.1563 26.3955 28.6784 25.4298 28.9199C24.4642 29.1614 23.4486 29.1114 22.5114 28.7762C21.5742 28.441 20.7575 27.8357 20.1643 27.0367C19.5711 26.2377 19.2282 25.2809 19.1788 24.2872C19.1294 23.2935 19.3758 22.3075 19.8868 21.4537C20.3978 20.5999 21.1506 19.9166 22.0499 19.4903C22.9493 19.0639 23.9549 18.9135 24.9397 19.0581C25.9245 19.2027 26.8444 19.6359 27.583 20.3028C28.0771 20.7448 28.4785 21.2803 28.764 21.8785C29.0495 22.4766 29.2135 23.1254 29.2464 23.7873C29.2793 24.4492 29.1805 25.1111 28.9557 25.7346C28.7308 26.358 28.3845 26.9307 27.9367 27.4195Z" fill="url(#paint0_radial_71_73)"/>
<path d="M25.5169 6.79933C25.9269 7.19961 26.3164 7.62024 26.6842 8.05962C27.8979 9.51093 28.8971 11.1288 29.6512 12.8637C30.8448 13.0881 32.0605 13.1719 33.2736 13.1133C33.3464 13.1133 33.413 13.1133 33.4817 13.1029C33.5503 13.0925 33.6086 13.0904 33.6773 13.0842C36.1741 12.8596 39.3991 11.9071 42.3536 8.94557C42.4556 8.84367 42.5617 8.7376 42.6574 8.62946C42.1997 8.08458 41.7294 7.54594 41.2176 7.03225C37.1236 2.94906 31.6963 0.474761 25.9276 0.0615952C20.159 -0.351571 14.4342 1.32399 9.79959 4.78202C17.2067 1.19663 22.3335 3.66939 25.5169 6.79933Z" fill="url(#paint1_linear_71_73)"/>
<path d="M8.47213 31.2337C8.61985 30.6618 8.79255 30.1127 8.98189 29.5949C9.63241 27.8191 10.5334 26.1454 11.6576 24.6244C11.2567 23.4791 10.7218 22.3852 10.0638 21.3655C10.0243 21.3052 9.99101 21.2449 9.9494 21.1846C9.90779 21.1243 9.87241 21.0785 9.83496 21.0244C8.39514 18.9822 5.95245 16.6571 1.9118 15.5819L1.47694 15.4862C1.23143 16.1559 1.00255 16.8318 0.811133 17.5326C-0.677258 23.1195 -0.104609 29.0552 2.42442 34.2549C4.95346 39.4546 9.26998 43.571 14.5851 45.8518C7.77303 41.237 7.35273 35.5636 8.47213 31.2337Z" fill="url(#paint2_linear_71_73)"/>
<path d="M38.2298 33.8042C37.6597 33.9622 37.0979 34.0849 36.5652 34.1827C34.7013 34.5074 32.8004 34.5641 30.9204 34.3511C30.1292 35.2711 29.4484 36.2804 28.8917 37.3584C28.8605 37.4249 28.8272 37.4831 28.794 37.5497C28.7607 37.6162 28.7399 37.6682 28.7128 37.7285C27.6725 39.9954 26.8714 43.2709 27.9596 47.3097C27.9971 47.447 28.0408 47.5884 28.0824 47.7256C28.7836 47.6029 29.4847 47.4636 30.1859 47.2764C35.7672 45.7723 40.621 42.3118 43.8611 37.5269C47.1012 32.7419 48.5113 26.9518 47.8341 21.2137C47.239 29.4118 42.5346 32.6125 38.2298 33.8042Z" fill="url(#paint3_linear_71_73)"/>
<path d="M9.79959 4.78202C9.79959 4.78202 4.58337 8.05131 1.85354 14.6148C4.33573 15.1419 6.63438 16.3156 8.51654 18.0168C10.3987 19.718 11.7974 21.8864 12.571 24.302C13.2348 23.8861 15.2759 22.2702 16.6429 17.8363C18.3074 12.4748 21.4409 8.52131 25.5169 6.79933C25.5169 6.79933 20.3548 -0.556551 9.79959 4.78202Z" fill="url(#paint4_linear_71_73)"/>
<path d="M26.3596 43.3749C26.3596 40.6568 27.1128 37.061 30.1339 33.6731L30.1672 33.6211C29.6741 33.0929 27.9492 31.7973 23.5091 32.808C18.0369 34.0558 11.9988 33.9102 8.47005 31.242C8.47005 31.242 4.67908 39.3902 14.5768 45.8518C14.5768 45.8518 20.0136 48.7343 27.0608 47.8213C26.5846 46.3877 26.3477 44.8855 26.3596 43.3749Z" fill="url(#paint5_linear_71_73)"/>
<path d="M43.2982 9.41351C41.9659 10.9262 40.3272 12.1387 38.4906 12.9705C36.654 13.8023 34.6616 14.2345 32.6453 14.2384C31.5825 14.2357 30.5227 14.1242 29.4827 13.9057L29.4286 13.8932C29.2205 14.6398 29.0582 16.7548 32.071 20.0033C35.8869 24.117 38.779 29.4139 38.2339 33.8042C38.2339 33.8042 47.1808 33.0118 47.8383 21.2137C47.8341 21.2137 47.6115 15.0578 43.2982 9.41351Z" fill="url(#paint6_linear_71_73)"/>
<defs>
<radialGradient id="paint0_radial_71_73" cx="0" cy="0" r="1" gradientUnits="userSpaceOnUse" gradientTransform="translate(14.9133 3.83694) scale(32.3881 32.4188)">
<stop stop-color="#4A96D2"/>
<stop offset="1" stop-color="#1F2466"/>
</radialGradient>
<linearGradient id="paint1_linear_71_73" x1="10.9655" y1="5.91006" x2="45.9821" y2="11.5471" gradientUnits="userSpaceOnUse">
<stop stop-color="#4A96D2"/>
<stop offset="1" stop-color="#1F2466"/>
</linearGradient>
<linearGradient id="paint2_linear_71_73" x1="26.6369" y1="40.2392" x2="24.1706" y2="4.00405" gradientUnits="userSpaceOnUse">
<stop stop-color="#4A96D2"/>
<stop offset="1" stop-color="#1F2466"/>
</linearGradient>
<linearGradient id="paint3_linear_71_73" x1="45.2628" y1="14.6126" x2="11.7898" y2="48.4347" gradientUnits="userSpaceOnUse">
<stop stop-color="#4A96D2"/>
<stop offset="1" stop-color="#1F2466"/>
</linearGradient>
<linearGradient id="paint4_linear_71_73" x1="14.1725" y1="33.4701" x2="36.1939" y2="2.80282" gradientUnits="userSpaceOnUse">
<stop stop-color="#4A96D2"/>
<stop offset="1" stop-color="#1F2466"/>
</linearGradient>
<linearGradient id="paint5_linear_71_73" x1="40.8652" y1="21.1111" x2="4.1512" y2="23.9111" gradientUnits="userSpaceOnUse">
<stop stop-color="#4A96D2"/>
<stop offset="1" stop-color="#1F2466"/>
</linearGradient>
<linearGradient id="paint6_linear_71_73" x1="37.8219" y1="13.941" x2="41.2977" y2="31.4942" gradientUnits="userSpaceOnUse">
<stop stop-color="#4A96D2"/>
<stop offset="1" stop-color="#1F2466"/>
</linearGradient>
</defs>
</svg>
